<svg xmlns="http://www.w3.org/2000/svg" width="58" height="31" viewBox="0 0 58 31">
    <g fill="none" fill-rule="evenodd">
        <path fill="#061B38" fill-opacity="0" d="M-4-6h67.2v42.451H-4z"/>
        <path fill="#E32700" d="M23.093 18.55c0 2.285-.528 4.342-1.585 6.17-1.056 1.827-2.532 3.255-4.427 4.284-1.894 1.028-4.05 1.542-6.468 1.542-2.019 0-3.775-.371-5.27-1.114-1.494-.743-2.646-1.78-3.455-3.113-.81-1.333-1.214-2.856-1.214-4.57 0-.356.013-.707.038-1.052.119 1.353.51 2.576 1.176 3.671.809 1.333 1.96 2.37 3.455 3.114 1.495.742 3.251 1.113 5.27 1.113 2.418 0 4.574-.514 6.468-1.542 1.895-1.028 3.37-2.456 4.427-4.284.892-1.543 1.408-3.248 1.547-5.116.025.292.038.592.038.898zM12.67 12.489c1.485 0 2.642.404 3.47 1.213.828.81 1.242 1.89 1.242 3.242 0 .368-.021.727-.064 1.077-.144-.953-.537-1.742-1.178-2.368-.828-.81-1.985-1.214-3.47-1.214-1.257 0-2.361.314-3.313.942a6.232 6.232 0 0 0-2.2 2.528 7.606 7.606 0 0 0-.706 2.424 5.748 5.748 0 0 1-.064-.876c0-1.276.257-2.442.77-3.498a6.232 6.232 0 0 1 2.2-2.528c.952-.628 2.056-.942 3.313-.942z"/>
        <path fill="#F1F1F1" d="M13.669 5.59l-.007-3.428-1.7 2.856h-.31l-1.7-2.836V5.59h-.645V.885h.552l1.962 3.307L13.756.885h.551l.007 4.704zm12.693-1.177h-2.5l-.517 1.176h-.692l2.13-4.704h.666l2.136 4.704h-.705zm-.235-.537L25.113 1.57l-1.015 2.305zM39.07 5.589l-1.015-1.445a4.403 4.403 0 0 1-.296.014h-1.162v1.431h-.672V.885h1.834c.61 0 1.089.146 1.438.437.35.291.524.692.524 1.203 0 .363-.09.672-.268.927-.18.256-.435.442-.766.558l1.115 1.58zm-1.331-2.002c.426 0 .75-.092.974-.276.224-.183.336-.446.336-.786s-.112-.601-.336-.783c-.224-.181-.548-.272-.974-.272h-1.142v2.117zm12.082 2.056a3.22 3.22 0 0 1-1.025-.165c-.329-.11-.588-.252-.776-.426l.249-.524c.18.16.409.292.689.393.28.1.568.15.863.15.39 0 .681-.065.874-.197a.611.611 0 0 0 .289-.528.52.52 0 0 0-.158-.393 1.056 1.056 0 0 0-.39-.232 7.156 7.156 0 0 0-.655-.181 6.752 6.752 0 0 1-.857-.256 1.417 1.417 0 0 1-.558-.393c-.154-.177-.231-.415-.231-.715 0-.251.066-.478.198-.68.132-.2.332-.362.601-.483.269-.121.603-.181 1.001-.181.278 0 .552.035.82.107.27.072.5.175.692.31l-.221.537a2.433 2.433 0 0 0-1.29-.383c-.381 0-.667.07-.857.208a.638.638 0 0 0-.286.538c0 .16.054.292.161.393.108.1.241.179.4.235.16.056.375.115.649.178.354.085.638.17.853.255.215.086.4.215.555.39.154.175.231.41.231.706 0 .246-.067.471-.201.675-.135.204-.338.365-.612.484-.273.119-.61.178-1.008.178z"/>
        <path fill="#E32700" d="M34.422 13.173c1.866 0 3.342.543 4.427 1.628 1.085 1.085 1.628 2.646 1.628 4.684v8.71h-1.428V19.6c0-1.676-.424-2.951-1.271-3.827-.847-.876-2.033-1.314-3.556-1.314-1.751 0-3.132.524-4.141 1.571-1.01 1.047-1.514 2.456-1.514 4.227v7.94H27.14V13.287h1.371v3.227a5.67 5.67 0 0 1 2.3-2.456c1.018-.59 2.222-.885 3.612-.885zm22.856 7.911H44.455c.038 1.162.333 2.194.885 3.099a5.665 5.665 0 0 0 2.242 2.099c.942.495 2.004.743 3.184.743.971 0 1.871-.177 2.7-.529a5.256 5.256 0 0 0 2.07-1.556l.828.942a6.363 6.363 0 0 1-2.442 1.8c-.98.418-2.042.628-3.184.628-1.485 0-2.809-.324-3.97-.971a7.04 7.04 0 0 1-2.727-2.685c-.657-1.142-.986-2.447-.986-3.913 0-1.447.31-2.746.928-3.898.62-1.152 1.471-2.052 2.557-2.699 1.085-.647 2.303-.971 3.655-.971 1.352 0 2.566.319 3.642.957 1.075.638 1.923 1.528 2.541 2.67.62 1.142.929 2.437.929 3.884zm-7.083-6.654c-1.047 0-1.99.233-2.827.7a5.332 5.332 0 0 0-2.014 1.97c-.504.847-.795 1.804-.87 2.87h11.423c-.057-1.066-.343-2.018-.857-2.856a5.586 5.586 0 0 0-2.027-1.97c-.838-.476-1.78-.714-2.828-.714z"/>
    </g>
</svg>
